#N canvas 641 75 787 464 10;
#X obj 48 231 id3;
#X msg 22 99 open \$1;
#X obj 22 76 openpanel;
#X obj 22 52 bng 15 250 50 0 empty empty empty 17 7 0 10 -262144 -1
-1;
#X obj 283 184 bng 15 250 50 0 empty empty output_raw_data 17 7 0 10
-262144 -1 -1;
#X obj 48 301 print title;
#X obj 120 301 print artist;
#X obj 199 301 print album;
#X obj 48 265 route title artist album comment;
#X obj 278 301 print comment;
#X obj 517 263 route raw;
#X obj 517 292 print raw;
#X msg 369 69 update;
#X text 16 35 open mp3 file;
#X text 281 167 bang;
#X text 550 428 (C)2011 Matthias Kronlachner;
#X text 552 381 ID3 Tag external;
#X text 552 410 depending on id3lib;
#X text 367 52 write id3 tag to file;
#N canvas 889 584 709 200 set 0;
#X obj 21 165 outlet;
#X msg 108 52 set artist \$1;
#X symbolatom 108 23 10 0 0 0 - - -;
#X symbolatom 21 25 10 0 0 0 - - -;
#X msg 21 52 set title \$1;
#X text 521 25 not working in the moment;
#X symbolatom 206 26 10 0 0 0 - - -;
#X msg 206 51 set album \$1;
#X symbolatom 308 26 10 0 0 0 - - -;
#X msg 308 51 set comment \$1;
#X msg 521 45 set raw ID3FID_COMMENT test;
#X connect 1 0 0 0;
#X connect 2 0 1 0;
#X connect 3 0 4 0;
#X connect 4 0 0 0;
#X connect 6 0 7 0;
#X connect 7 0 0 0;
#X connect 8 0 9 0;
#X connect 9 0 0 0;
#X connect 10 0 0 0;
#X restore 242 71 pd set id3 tag;
#N canvas 340 611 358 211 get 0;
#X msg 105 44 get artist;
#X msg 179 44 get album;
#X msg 37 44 get title;
#X msg 250 44 get comment;
#X obj 37 162 outlet;
#X connect 0 0 4 0;
#X connect 1 0 4 0;
#X connect 2 0 4 0;
#X connect 3 0 4 0;
#X restore 146 70 pd get id3 tag;
#X text 515 241 RAW Data -> displays all tag information;
#X text 552 395 version 0.1;
#X text 207 4 * open mp3 file;
#X text 207 19 * output data or change tag;
#X text 207 33 * update to write to file;
#X connect 0 0 8 0;
#X connect 0 0 10 0;
#X connect 1 0 0 0;
#X connect 2 0 1 0;
#X connect 3 0 2 0;
#X connect 4 0 0 0;
#X connect 8 0 5 0;
#X connect 8 1 6 0;
#X connect 8 2 7 0;
#X connect 8 3 9 0;
#X connect 10 0 11 0;
#X connect 12 0 0 0;
#X connect 19 0 0 0;
#X connect 20 0 0 0;
